<?xml version="1.0" encoding="UTF-8" standalone="no"?>
<!-- Created with Inkscape (http://www.inkscape.org/) -->

<svg
   xmlns:dc="http://purl.org/dc/elements/1.1/"
   xmlns:cc="http://creativecommons.org/ns#"
   xmlns:rdf="http://www.w3.org/1999/02/22-rdf-syntax-ns#"
   xmlns:svg="http://www.w3.org/2000/svg"
   xmlns="http://www.w3.org/2000/svg"
   xmlns:sodipodi="http://sodipodi.sourceforge.net/DTD/sodipodi-0.dtd"
   xmlns:inkscape="http://www.inkscape.org/namespaces/inkscape"
   width="100"
   height="100"
   viewBox="0 0 26.458333 26.458334"
   version="1.1"
   id="svg6474"
   inkscape:version="0.92.1 unknown"
   sodipodi:docname="door.svg">
  <defs
     id="defs6468" />
  <sodipodi:namedview
     id="base"
     pagecolor="#ffffff"
     bordercolor="#666666"
     borderopacity="1.0"
     inkscape:pageopacity="0.0"
     inkscape:pageshadow="2"
     inkscape:zoom="7.9195959"
     inkscape:cx="48.592454"
     inkscape:cy="47.809099"
     inkscape:document-units="mm"
     inkscape:current-layer="layer1"
     showgrid="false"
     units="px"
     inkscape:window-width="1920"
     inkscape:window-height="1056"
     inkscape:window-x="0"
     inkscape:window-y="0"
     inkscape:window-maximized="1" />
  <metadata
     id="metadata6471">
    <rdf:RDF>
      <cc:Work
         rdf:about="">
        <dc:format>image/svg+xml</dc:format>
        <dc:type
           rdf:resource="http://purl.org/dc/dcmitype/StillImage" />
        <dc:title></dc:title>
      </cc:Work>
    </rdf:RDF>
  </metadata>
  <g
     inkscape:label="Layer 1"
     inkscape:groupmode="layer"
     id="layer1"
     transform="translate(0,-270.54165)">
    <path
       style="fill:#502d16;fill-opacity:1;stroke-width:0.26458332"
       d="m 3.4410952,276.11957 c 0,0 0.2338608,-4.27632 10.0560158,-4.64381 6.848782,0.43431 7.841956,2.06906 9.721928,4.64381 1.236122,5.54584 1.069078,20.67997 1.069078,20.67997 H 2.6058779 c 0,0 -0.4677216,-15.93594 0.8352173,-20.67997 z"
       id="rect6476"
       inkscape:connector-curvature="0"
       sodipodi:nodetypes="cccccc" />
    <path
       style="fill:#000080;fill-opacity:1;stroke-width:0.26458332"
       d="m 4.3097212,276.52045 c 0,0 -0.00684,-1.11514 3.0333519,-2.81899 3.5747299,-1.70384 4.8845089,-1.45732 4.8845089,-1.45732 l 0.03341,24.12107 -8.8533034,0.10023 c 0,0 -0.1002261,-14.83346 0.9020346,-19.94499 z"
       id="rect6479"
       inkscape:connector-curvature="0"
       sodipodi:nodetypes="cccccc" />
    <path
       sodipodi:nodetypes="cccccc"
       inkscape:connector-curvature="0"
       id="path6482"
       d="m 22.080365,276.42022 c 0,0 0.0068,-1.11514 -3.033352,-2.81899 -3.57473,-1.70384 -4.884509,-1.45732 -4.884509,-1.45732 l -0.03341,24.12107 8.853304,0.10023 c 0,0 0.100226,-14.83346 -0.902035,-19.94499 z"
       style="fill:#000080;fill-opacity:1;stroke-width:0.26458332" />
    <rect
       style="fill:#280b0b;fill-opacity:1;stroke-width:0.26458332"
       id="rect6484"
       width="0.83521724"
       height="25.323788"
       x="12.762119"
       y="271.47574" />
    <circle
       r="0.71828681"
       cy="285.32364"
       cx="10.707484"
       id="circle6495"
       style="fill:#c8beb7;fill-opacity:1;stroke-width:0.26458332" />
    <circle
       style="fill:#ffff00;fill-opacity:1;stroke-width:0.26458332"
       id="path6486"
       cx="10.740893"
       cy="285.15659"
       r="0.71828681" />
    <circle
       style="fill:#c8beb7;fill-opacity:1;stroke-width:0.26458332"
       id="circle6497"
       cx="15.651971"
       cy="285.35706"
       r="0.71828681" />
    <circle
       r="0.71828681"
       cy="285.22342"
       cx="15.68538"
       id="circle6488"
       style="fill:#ffff00;fill-opacity:1;stroke-width:0.26458332" />
    <path
       style="fill:#ffcc00;fill-opacity:1;stroke-width:0.26458332"
       d="m 5.2117557,279.64416 c 10e-8,1.97091 2.426269,4.55418 2.839568,6.79254 0.5559355,3.01086 -0.8808977,5.45175 -1.1190203,5.45175 -0.2260106,0 1.0411087,-2.34941 0.4161101,-5.1446 -0.5230369,-2.33918 -2.971875,-4.96053 -2.9718749,-7.06628 1e-7,-4.622 2.1406151,-4.52687 2.5557648,-4.52687 0.4151497,0 -1.7205478,-0.12854 -1.7205477,4.49346 z"
       id="path6490"
       inkscape:connector-curvature="0"
       sodipodi:nodetypes="sssssss" />
    <path
       sodipodi:nodetypes="sssssss"
       inkscape:connector-curvature="0"
       id="path6493"
       d="m 20.70646,279.51053 c 0,1.97091 -2.426269,4.55418 -2.839568,6.79254 -0.555936,3.01086 0.880897,5.45175 1.11902,5.45175 0.226011,0 -1.041109,-2.34941 -0.41611,-5.1446 0.523037,-2.33918 2.971875,-4.96053 2.971875,-7.06628 0,-4.622 -2.140615,-4.52687 -2.555765,-4.52687 -0.41515,0 1.720548,-0.12854 1.720548,4.49346 z"
       style="fill:#ffcc00;fill-opacity:1;stroke-width:0.26458332" />
  </g>
</svg>
