<?xml version="1.0" encoding="UTF-8" standalone="no"?>
<!-- Created with Inkscape (http://www.inkscape.org/) -->

<svg
   xmlns:dc="http://purl.org/dc/elements/1.1/"
   xmlns:cc="http://creativecommons.org/ns#"
   xmlns:rdf="http://www.w3.org/1999/02/22-rdf-syntax-ns#"
   xmlns:svg="http://www.w3.org/2000/svg"
   xmlns="http://www.w3.org/2000/svg"
   xmlns:sodipodi="http://sodipodi.sourceforge.net/DTD/sodipodi-0.dtd"
   xmlns:inkscape="http://www.inkscape.org/namespaces/inkscape"
   width="128"
   height="128"
   viewBox="0 0 33.866666 33.866668"
   version="1.1"
   id="svg98"
   inkscape:version="0.92.1 unknown"
   sodipodi:docname="lemming.svg">
  <defs
     id="defs92" />
  <sodipodi:namedview
     id="base"
     pagecolor="#ffffff"
     bordercolor="#666666"
     borderopacity="1.0"
     inkscape:pageopacity="0.0"
     inkscape:pageshadow="2"
     inkscape:zoom="5.6568542"
     inkscape:cx="79.977874"
     inkscape:cy="62.806328"
     inkscape:document-units="mm"
     inkscape:current-layer="layer1"
     showgrid="false"
     units="px"
     inkscape:snap-others="false"
     inkscape:object-nodes="false"
     inkscape:window-width="1920"
     inkscape:window-height="1056"
     inkscape:window-x="0"
     inkscape:window-y="0"
     inkscape:window-maximized="1" />
  <metadata
     id="metadata95">
    <rdf:RDF>
      <cc:Work
         rdf:about="">
        <dc:format>image/svg+xml</dc:format>
        <dc:type
           rdf:resource="http://purl.org/dc/dcmitype/StillImage" />
        <dc:title></dc:title>
      </cc:Work>
    </rdf:RDF>
  </metadata>
  <g
     inkscape:label="Layer 1"
     inkscape:groupmode="layer"
     id="layer1"
     transform="translate(0,-263.13332)">
    <path
       sodipodi:nodetypes="cccccccc"
       inkscape:connector-curvature="0"
       id="path114"
       d="m 16.914434,286.70013 c 1.417411,-0.61421 0.992385,-0.59058 2.97676,-0.40159 2.22061,-0.0945 2.834623,0.59059 2.834623,0.59059 0,0 1.393339,0.69872 2.480021,3.67529 0.94494,2.07887 1.016259,4.4512 1.016259,4.4512 H 12.047991 c 0,0 -0.297028,-1.85191 1.451112,-4.63949 1.653646,-2.59858 1.336462,-2.49482 3.415331,-3.676 z"
       style="fill:#1a6b1a;stroke-width:0.26458332;fill-opacity:1" />
    <ellipse
       ry="3.141927"
       rx="2.4804688"
       cy="275.81918"
       cx="27.857819"
       id="ellipse4598"
       style="fill:#d5cbc4;fill-opacity:1;stroke-width:0.26458332" />
    <ellipse
       style="fill:#ffb380;stroke-width:0.37760895"
       id="path100"
       cx="16.796316"
       cy="281.14865"
       rx="14.811941"
       ry="10.70145" />
    <path
       style="fill:#008000;stroke-width:0.26458332"
       d="m 7.7957587,287.55058 c 1.7008929,-1.03943 1.2286198,-1.1103 3.6382183,-1.1103 2.201648,-0.3046 2.692882,0.82683 2.692882,0.82683 0,0 1.393339,0.69872 2.480021,3.67529 0.94494,2.07887 1.016259,4.4512 1.016259,4.4512 H 3.4490326 c 0,0 -0.297028,-1.85191 1.4511119,-4.63949 1.6536458,-2.59858 1.0013877,-1.74449 2.8956142,-3.20353 z"
       id="rect102"
       inkscape:connector-curvature="0"
       sodipodi:nodetypes="cccccccc" />
    <ellipse
       ry="1.3937871"
       rx="0.9921875"
       cy="276.28452"
       cx="28.16065"
       id="ellipse4600"
       style="fill:#241c1c;fill-opacity:1;stroke-width:0.26458332" />
    <ellipse
       style="fill:#e3dedb;fill-opacity:1;stroke-width:0.26458332"
       id="path4594"
       cx="28.419085"
       cy="276.75464"
       rx="2.4804688"
       ry="3.141927" />
    <ellipse
       style="fill:#241c1c;fill-opacity:1;stroke-width:0.26458332"
       id="path4596"
       cx="28.721916"
       cy="277.21997"
       rx="0.9921875"
       ry="1.3937871" />
    <ellipse
       style="fill:#ff5555;fill-opacity:1;stroke-width:0.26458332"
       id="path4602"
       cx="31.454283"
       cy="281.09744"
       rx="1.8942728"
       ry="1.3563927" />
    <path
       sodipodi:type="star"
       style="fill:#ff0000;fill-opacity:1;stroke-width:0.26458332"
       id="path4604"
       sodipodi:sides="10"
       sodipodi:cx="11.22532"
       sodipodi:cy="271.50916"
       sodipodi:r1="10.844892"
       sodipodi:r2="5.4224458"
       sodipodi:arg1="0.53894021"
       sodipodi:arg2="0.85309948"
       inkscape:flatsided="false"
       inkscape:rounded="0"
       inkscape:randomized="0"
       d="m 20.532981,277.07504 -5.741582,-1.48103 0.69243,5.88895 -3.774505,-4.573 -2.9012526,5.17126 -0.3656956,-5.91823 -5.3867556,2.47832 3.1827976,-5.0029 -5.81470119,-1.16125 5.51557019,-2.17663 -4.0216285,-4.35726 5.7415825,1.48104 -0.6924304,-5.88896 3.7745056,4.573 2.901252,-5.17126 0.365696,5.91823 5.386756,-2.47832 -3.182798,5.0029 5.814701,1.16125 -5.51557,2.17663 z"
       transform="matrix(1.4557131,-0.35326035,0.18209568,0.75037875,-50.159585,72.043933)" />
    <path
       style="fill:#d35f5f;fill-opacity:1;stroke-width:0.26458332"
       d="m 22.725817,282.49255 8.465762,1.30962 c 0,0 -0.730218,1.38513 -0.823763,1.80607 -1.07576,1.1693 -1.047123,1.14058 -1.047123,1.14058 0,0 -2.385381,-0.0935 -3.320824,-0.56126 0,0 -0.475789,-0.4037 -1.78541,-1.2456 -1.216076,-1.30962 -1.488642,-2.44941 -1.488642,-2.44941 z"
       id="rect4606"
       inkscape:connector-curvature="0"
       sodipodi:nodetypes="ccccccc" />
    <path
       style="fill:#ffe680;fill-opacity:1;stroke-width:0.26458332"
       d="m 29.161902,283.43784 1.004571,0.22768 -0.262963,1.99612 -1.305568,-0.1391 z"
       id="rect4609"
       inkscape:connector-curvature="0"
       sodipodi:nodetypes="ccccc" />
    <path
       sodipodi:nodetypes="ccccc"
       inkscape:connector-curvature="0"
       id="path4612"
       d="m 26.96361,284.37328 1.004571,0.22768 -0.262963,1.99612 -1.305568,-0.1391 z"
       style="fill:#ffe680;fill-opacity:1;stroke-width:0.26458332" />
  </g>
</svg>
